{
	"asset":{
		"generator":"Khronos glTF Blender I/O v4.3.47",
		"version":"2.0"
	},
	"scene":0,
	"scenes":[
		{
			"name":"Scene",
			"nodes":[
				0,
				1
			]
		}
	],
	"nodes":[
		{
			"mesh":0,
			"name":"Cube",
			"translation":[
				-0.009913131594657898,
				0.02225867472589016,
				0.26939642429351807
			]
		},
		{
			"mesh":1,
			"name":"Text",
			"rotation":[
				0.49889764189720154,
				-0.4895314872264862,
				0.5043874382972717,
				0.5070042610168457
			],
			"translation":[
				-1.0435481071472168,
				0.19219502806663513,
				-0.11121693253517151
			]
		}
	],
	"materials":[
		{
			"doubleSided":true,
			"name":"Material",
			"pbrMetallicRoughness":{
				"baseColorFactor":[
					0.08473985642194748,
					0.2756851017475128,
					0.8003311157226562,
					1
				],
				"metallicFactor":0,
				"roughnessFactor":0.5
			}
		},
		{
			"doubleSided":true,
			"name":"Material.001",
			"pbrMetallicRoughness":{
				"baseColorFactor":[
					0.800000011920929,
					0.800000011920929,
					0.800000011920929,
					1
				],
				"metallicFactor":0,
				"roughnessFactor":0.5
			}
		}
	],
	"meshes":[
		{
			"name":"Cube",
			"primitives":[
				{
					"attributes":{
						"POSITION":0,
						"NORMAL":1,
						"TEXCOORD_0":2,
						"COLOR_0":3,
						"COLOR_1":4
					},
					"indices":5,
					"material":0
				}
			]
		},
		{
			"name":"Text",
			"primitives":[
				{
					"attributes":{
						"POSITION":6,
						"NORMAL":7,
						"TEXCOORD_0":8
					},
					"indices":9,
					"material":1
				}
			]
		}
	],
	"accessors":[
		{
			"bufferView":0,
			"componentType":5126,
			"count":24,
			"max":[
				1,
				1.0032776594161987,
				1
			],
			"min":[
				-1.00277578830719,
				-1,
				-1
			],
			"type":"VEC3"
		},
		{
			"bufferView":1,
			"componentType":5126,
			"count":24,
			"type":"VEC3"
		},
		{
			"bufferView":2,
			"componentType":5126,
			"count":24,
			"type":"VEC2"
		},
		{
			"bufferView":3,
			"componentType":5121,
			"count":24,
			"normalized":true,
			"type":"VEC4"
		},
		{
			"bufferView":4,
			"componentType":5123,
			"count":24,
			"normalized":true,
			"type":"VEC4"
		},
		{
			"bufferView":5,
			"componentType":5123,
			"count":36,
			"type":"SCALAR"
		},
		{
			"bufferView":6,
			"componentType":5126,
			"count":314,
			"max":[
				0.5056545734405518,
				0.03999999910593033,
				0.3492211401462555
			],
			"min":[
				0.11765457689762115,
				-0.03999999910593033,
				-0.3417789041996002
			],
			"type":"VEC3"
		},
		{
			"bufferView":7,
			"componentType":5126,
			"count":314,
			"type":"VEC3"
		},
		{
			"bufferView":8,
			"componentType":5126,
			"count":314,
			"type":"VEC2"
		},
		{
			"bufferView":9,
			"componentType":5123,
			"count":924,
			"type":"SCALAR"
		}
	],
	"bufferViews":[
		{
			"buffer":0,
			"byteLength":288,
			"byteOffset":0,
			"target":34962
		},
		{
			"buffer":0,
			"byteLength":288,
			"byteOffset":288,
			"target":34962
		},
		{
			"buffer":0,
			"byteLength":192,
			"byteOffset":576,
			"target":34962
		},
		{
			"buffer":0,
			"byteLength":96,
			"byteOffset":768,
			"target":34962
		},
		{
			"buffer":0,
			"byteLength":192,
			"byteOffset":864,
			"target":34962
		},
		{
			"buffer":0,
			"byteLength":72,
			"byteOffset":1056,
			"target":34963
		},
		{
			"buffer":0,
			"byteLength":3768,
			"byteOffset":1128,
			"target":34962
		},
		{
			"buffer":0,
			"byteLength":3768,
			"byteOffset":4896,
			"target":34962
		},
		{
			"buffer":0,
			"byteLength":2512,
			"byteOffset":8664,
			"target":34962
		},
		{
			"buffer":0,
			"byteLength":1848,
			"byteOffset":11176,
			"target":34963
		}
	],
	"buffers":[
		{
			"byteLength":13024,
			"uri":"bluecube.bin"
		}
	]
}
