{
  "accessors": [
    {
      "bufferView": 2,
      "componentType": 5126,
      "count": 126,
      "max": [
        0.033423297107219696,
        -0.3727433681488037,
        0.36234426498413086
      ],
      "min": [
        -0.032723426818847656,
        -0.5703542828559875,
        0.00035774707794189453
      ],
      "type": "VEC3"
    },
    {
      "bufferView": 2,
      "byteOffset": 1512,
      "componentType": 5126,
      "count": 126,
      "max": [
        0.934554398059845,
        0.944102942943573,
        0.7447531819343567
      ],
      "min": [
        -0.9345353841781616,
        -0.9382575750350952,
        -0.9769569635391235
      ],
      "type": "VEC3"
    },
    {
      "bufferView": 1,
      "componentType": 5126,
      "count": 126,
      "max": [
        0.7030099034309387,
        0.38030576705932617
      ],
      "min": [
        0.6760613322257996,
        0.31104469299316406
      ],
      "type": "VEC2"
    },
    {
      "bufferView": 0,
      "componentType": 5125,
      "count": 624,
      "type": "SCALAR"
    },
    {
      "bufferView": 2,
      "byteOffset": 3024,
      "componentType": 5126,
      "count": 200,
      "max": [
        0.5635867714881897,
        0.03432749956846237,
        0.280231773853302
      ],
      "min": [
        -0.5635867714881897,
        -0.03432749956846237,
        0.011347532272338867
      ],
      "type": "VEC3"
    },
    {
      "bufferView": 2,
      "byteOffset": 5424,
      "componentType": 5126,
      "count": 200,
      "max": [
        0.9886683821678162,
        0.9999808073043823,
        0.7453109622001648
      ],
      "min": [
        -0.9886683225631714,
        -0.9987723231315613,
        -0.9876152873039246
      ],
      "type": "VEC3"
    },
    {
      "bufferView": 1,
      "byteOffset": 1008,
      "componentType": 5126,
      "count": 200,
      "max": [
        0.08869045972824097,
        0.693699836730957
      ],
      "min": [
        0.05859220027923584,
        0.6492348313331604
      ],
      "type": "VEC2"
    },
    {
      "bufferView": 0,
      "byteOffset": 2496,
      "componentType": 5125,
      "count": 972,
      "type": "SCALAR"
    },
    {
      "bufferView": 2,
      "byteOffset": 7824,
      "componentType": 5126,
      "count": 305,
      "max": [
        1.0705848932266235,
        0.4652681350708008,
        2.201829195022583
      ],
      "min": [
        -1.0275570154190063,
        -0.8816016316413879,
        0.12133383750915527
      ],
      "type": "VEC3"
    },
    {
      "bufferView": 2,
      "byteOffset": 11484,
      "componentType": 5126,
      "count": 305,
      "max": [
        0.9999945163726807,
        0.9999496340751648,
        0.9999889731407166
      ],
      "min": [
        -0.9999944567680359,
        -0.9988876581192017,
        -0.9863515496253967
      ],
      "type": "VEC3"
    },
    {
      "bufferView": 1,
      "byteOffset": 2608,
      "componentType": 5126,
      "count": 305,
      "max": [
        0.6754516363143921,
        0.9996951222419739
      ],
      "min": [
        0.0003048749640583992,
        0.0003048749640583992
      ],
      "type": "VEC2"
    },
    {
      "bufferView": 0,
      "byteOffset": 6384,
      "componentType": 5125,
      "count": 1386,
      "type": "SCALAR"
    },
    {
      "bufferView": 2,
      "byteOffset": 15144,
      "componentType": 5126,
      "count": 51,
      "max": [
        0.08282993733882904,
        0.2575794458389282,
        1.255411148071289
      ],
      "min": [
        -0.08282990753650665,
        0.14476095139980316,
        1.0900492668151855
      ],
      "type": "VEC3"
    },
    {
      "bufferView": 2,
      "byteOffset": 15756,
      "componentType": 5126,
      "count": 51,
      "max": [
        0.9740996956825256,
        0.9920439124107361,
        0.9798401594161987
      ],
      "min": [
        -0.9740997552871704,
        -0.048684507608413696,
        -0.9406894445419312
      ],
      "type": "VEC3"
    },
    {
      "bufferView": 1,
      "byteOffset": 5048,
      "componentType": 5126,
      "count": 51,
      "max": [
        0.11544260382652283,
        0.697853147983551
      ],
      "min": [
        0.08930018544197083,
        0.6492348313331604
      ],
      "type": "VEC2"
    },
    {
      "bufferView": 0,
      "byteOffset": 11928,
      "componentType": 5125,
      "count": 168,
      "type": "SCALAR"
    },
    {
      "bufferView": 2,
      "byteOffset": 16368,
      "componentType": 5126,
      "count": 188,
      "max": [
        0.054006729274988174,
        -0.11892320960760117,
        2.4627747535705566
      ],
      "min": [
        -0.054006729274988174,
        -0.2712286710739136,
        2.1205320358276367
      ],
      "type": "VEC3"
    },
    {
      "bufferView": 2,
      "byteOffset": 18624,
      "componentType": 5126,
      "count": 188,
      "max": [
        0.9802173972129822,
        0.9806352853775024,
        0.9962063431739807
      ],
      "min": [
        -0.9802176356315613,
        -0.9804664850234985,
        -0.5567018985748291
      ],
      "type": "VEC3"
    },
    {
      "bufferView": 1,
      "byteOffset": 5456,
      "componentType": 5126,
      "count": 188,
      "max": [
        0.6503112316131592,
        0.6986880898475647
      ],
      "min": [
        0.00030487775802612305,
        0.5646222829818726
      ],
      "type": "VEC2"
    },
    {
      "bufferView": 0,
      "byteOffset": 12600,
      "componentType": 5125,
      "count": 690,
      "type": "SCALAR"
    },
    {
      "bufferView": 2,
      "byteOffset": 20880,
      "componentType": 5126,
      "count": 576,
      "max": [
        1.093956708908081,
        0.27291202545166016,
        2.580484628677368
      ],
      "min": [
        -1.093956708908081,
        -0.6168162822723389,
        1.6176947355270386
      ],
      "type": "VEC3"
    },
    {
      "bufferView": 2,
      "byteOffset": 27792,
      "componentType": 5126,
      "count": 576,
      "max": [
        0.9439882040023804,
        0.9536110758781433,
        0.996626079082489
      ],
      "min": [
        -0.9439880847930908,
        -0.9533493518829346,
        -0.9978467226028442
      ],
      "type": "VEC3"
    },
    {
      "bufferView": 1,
      "byteOffset": 6960,
      "componentType": 5126,
      "count": 576,
      "max": [
        0.7231593132019043,
        0.7931157350540161
      ],
      "min": [
        0.19097024202346802,
        0.00030487775802612305
      ],
      "type": "VEC2"
    },
    {
      "bufferView": 0,
      "byteOffset": 15360,
      "componentType": 5125,
      "count": 2160,
      "type": "SCALAR"
    },
    {
      "bufferView": 2,
      "byteOffset": 34704,
      "componentType": 5126,
      "count": 966,
      "max": [
        0.8408594727516174,
        0.34674471616744995,
        1.9838314056396484
      ],
      "min": [
        -0.8408594727516174,
        0.054043784737586975,
        0.32540565729141235
      ],
      "type": "VEC3"
    },
    {
      "bufferView": 2,
      "byteOffset": 46296,
      "componentType": 5126,
      "count": 966,
      "max": [
        0.9839351773262024,
        0.9990692734718323,
        0.9987948536872864
      ],
      "min": [
        -0.9839341640472412,
        -0.999879777431488,
        -0.9979186058044434
      ],
      "type": "VEC3"
    },
    {
      "bufferView": 1,
      "byteOffset": 11568,
      "componentType": 5126,
      "count": 966,
      "max": [
        0.6494381427764893,
        0.6811574697494507
      ],
      "min": [
        0.11605235934257507,
        0.39219969511032104
      ],
      "type": "VEC2"
    },
    {
      "bufferView": 0,
      "byteOffset": 24000,
      "componentType": 5125,
      "count": 3564,
      "type": "SCALAR"
    },
    {
      "bufferView": 2,
      "byteOffset": 57888,
      "componentType": 5126,
      "count": 30,
      "max": [
        0.0017110604094341397,
        0.18295221030712128,
        1.1871256828308105
      ],
      "min": [
        -0.6206256151199341,
        0.15958204865455627,
        1.1268742084503174
      ],
      "type": "VEC3"
    },
    {
      "bufferView": 2,
      "byteOffset": 58248,
      "componentType": 5126,
      "count": 30,
      "max": [
        4.9454172312835e-08,
        0.9999333620071411,
        0.9857975840568542
      ],
      "min": [
        -0.6872016787528992,
        -0.9999344944953918,
        -0.9857980608940125
      ],
      "type": "VEC3"
    },
    {
      "bufferView": 1,
      "byteOffset": 19296,
      "componentType": 5126,
      "count": 30,
      "max": [
        0.6436898708343506,
        0.6735951900482178
      ],
      "min": [
        0.3456719219684601,
        0.3840024769306183
      ],
      "type": "VEC2"
    },
    {
      "bufferView": 0,
      "byteOffset": 38256,
      "componentType": 5125,
      "count": 48,
      "type": "SCALAR"
    },
    {
      "bufferView": 2,
      "byteOffset": 58608,
      "componentType": 5126,
      "count": 30,
      "max": [
        0.31978753209114075,
        0.1837998777627945,
        1.6980116367340088
      ],
      "min": [
        -0.02324945293366909,
        0.06907398998737335,
        1.1411850452423096
      ],
      "type": "VEC3"
    },
    {
      "bufferView": 2,
      "byteOffset": 58968,
      "componentType": 5126,
      "count": 30,
      "max": [
        0.9869450926780701,
        0.9893845319747925,
        0.8839592337608337
      ],
      "min": [
        -0.8680523633956909,
        -0.9884376525878906,
        -0.49169889092445374
      ],
      "type": "VEC3"
    },
    {
      "bufferView": 1,
      "byteOffset": 19536,
      "componentType": 5126,
      "count": 30,
      "max": [
        0.649699330329895,
        0.6739659309387207
      ],
      "min": [
        0.3456719219684601,
        0.4818686544895172
      ],
      "type": "VEC2"
    },
    {
      "bufferView": 0,
      "byteOffset": 38448,
      "componentType": 5125,
      "count": 48,
      "type": "SCALAR"
    }
  ],
  "asset": {
    "extras": {
      "author": "robobaygames (https://sketchfab.com/robobaygames)",
      "license": "CC-BY-4.0 (http://creativecommons.org/licenses/by/4.0/)",
      "source": "https://sketchfab.com/3d-models/alarm-clock-c22043f35c104154a7e72e1e3a59e587",
      "title": "Alarm Clock"
    },
    "generator": "Sketchfab-14.49.0",
    "version": "2.0"
  },
  "bufferViews": [
    {
      "buffer": 0,
      "byteLength": 38640,
      "name": "floatBufferViews",
      "target": 34963
    },
    {
      "buffer": 0,
      "byteLength": 19776,
      "byteOffset": 38640,
      "byteStride": 8,
      "name": "floatBufferViews",
      "target": 34962
    },
    {
      "buffer": 0,
      "byteLength": 59328,
      "byteOffset": 58416,
      "byteStride": 12,
      "name": "floatBufferViews",
      "target": 34962
    }
  ],
  "buffers": [
    {
      "byteLength": 117744,
      "uri": "scene.bin"
    }
  ],
  "images": [
    {
      "uri": "textures/UV_Mat_baseColor.png"
    }
  ],
  "materials": [
    {
      "doubleSided": true,
      "name": "UV_Mat",
      "pbrMetallicRoughness": {
        "baseColorTexture": {
          "index": 0
        },
        "metallicFactor": 0.0,
        "roughnessFactor": 0.25790250027428663
      }
    }
  ],
  "meshes": [
    {
      "name": "Leg02.001_UV Mat_0",
      "primitives": [
        {
          "attributes": {
            "NORMAL": 1,
            "POSITION": 0,
            "TEXCOORD_0": 2
          },
          "indices": 3,
          "material": 0,
          "mode": 4
        }
      ]
    },
    {
      "name": "Leg01.001_UV Mat_0",
      "primitives": [
        {
          "attributes": {
            "NORMAL": 5,
            "POSITION": 4,
            "TEXCOORD_0": 6
          },
          "indices": 7,
          "material": 0,
          "mode": 4
        }
      ]
    },
    {
      "name": "Clock.002_UV Mat_0",
      "primitives": [
        {
          "attributes": {
            "NORMAL": 9,
            "POSITION": 8,
            "TEXCOORD_0": 10
          },
          "indices": 11,
          "material": 0,
          "mode": 4
        }
      ]
    },
    {
      "name": "Knob.001_UV Mat_0",
      "primitives": [
        {
          "attributes": {
            "NORMAL": 13,
            "POSITION": 12,
            "TEXCOORD_0": 14
          },
          "indices": 15,
          "material": 0,
          "mode": 4
        }
      ]
    },
    {
      "name": "Button.001_UV Mat_0",
      "primitives": [
        {
          "attributes": {
            "NORMAL": 17,
            "POSITION": 16,
            "TEXCOORD_0": 18
          },
          "indices": 19,
          "material": 0,
          "mode": 4
        }
      ]
    },
    {
      "name": "Bells_UV Mat_0",
      "primitives": [
        {
          "attributes": {
            "NORMAL": 21,
            "POSITION": 20,
            "TEXCOORD_0": 22
          },
          "indices": 23,
          "material": 0,
          "mode": 4
        }
      ]
    },
    {
      "name": "Numbers.001_UV Mat_0",
      "primitives": [
        {
          "attributes": {
            "NORMAL": 25,
            "POSITION": 24,
            "TEXCOORD_0": 26
          },
          "indices": 27,
          "material": 0,
          "mode": 4
        }
      ]
    },
    {
      "name": "Arrows Large_UV Mat_0",
      "primitives": [
        {
          "attributes": {
            "NORMAL": 29,
            "POSITION": 28,
            "TEXCOORD_0": 30
          },
          "indices": 31,
          "material": 0,
          "mode": 4
        }
      ]
    },
    {
      "name": "Arrows Small_UV Mat_0",
      "primitives": [
        {
          "attributes": {
            "NORMAL": 33,
            "POSITION": 32,
            "TEXCOORD_0": 34
          },
          "indices": 35,
          "material": 0,
          "mode": 4
        }
      ]
    }
  ],
  "nodes": [
    {
      "children": [
        1
      ],
      "matrix": [
        0.7352227568626404,
        0.0,
        0.0,
        0.0,
        0.0,
        1.6325224657945733e-16,
        -0.7352227568626404,
        0.0,
        0.0,
        0.7352227568626404,
        1.6325224657945733e-16,
        0.0,
        0.0,
        0.0,
        0.0,
        1.0
      ],
      "name": "Sketchfab_model"
    },
    {
      "children": [
        2
      ],
      "matrix": [
        0.009999999776482582,
        0.0,
        0.0,
        0.0,
        0.0,
        0.0,
        0.009999999776482582,
        0.0,
        0.0,
        -0.009999999776482582,
        0.0,
        0.0,
        0.0,
        0.0,
        0.0,
        1.0
      ],
      "name": "23adf7ddee404793859f85c80d6bdc45.fbx"
    },
    {
      "children": [
        3,
        5,
        7,
        9,
        11,
        13,
        15,
        17,
        19
      ],
      "name": "RootNode"
    },
    {
      "children": [
        4
      ],
      "matrix": [
        100.0,
        0.0,
        0.0,
        0.0,
        0.0,
        -1.629206793918314e-05,
        -99.99999999999868,
        0.0,
        0.0,
        99.99999999999868,
        -1.629206793918314e-05,
        0.0,
        0.0,
        0.0,
        0.0,
        1.0
      ],
      "name": "Leg02.001"
    },
    {
      "mesh": 0,
      "name": "Leg02.001_UV Mat_0"
    },
    {
      "children": [
        6
      ],
      "matrix": [
        100.0,
        0.0,
        0.0,
        0.0,
        0.0,
        -1.629206793918314e-05,
        -99.99999999999868,
        0.0,
        0.0,
        99.99999999999868,
        -1.629206793918314e-05,
        0.0,
        0.0,
        0.0,
        0.0,
        1.0
      ],
      "name": "Leg01.001"
    },
    {
      "mesh": 1,
      "name": "Leg01.001_UV Mat_0"
    },
    {
      "children": [
        8
      ],
      "matrix": [
        100.0,
        0.0,
        0.0,
        0.0,
        0.0,
        -1.629206793918314e-05,
        -99.99999999999868,
        0.0,
        0.0,
        99.99999999999868,
        -1.629206793918314e-05,
        0.0,
        0.0,
        0.0,
        0.0,
        1.0
      ],
      "name": "Clock.002"
    },
    {
      "mesh": 2,
      "name": "Clock.002_UV Mat_0"
    },
    {
      "children": [
        10
      ],
      "matrix": [
        100.0,
        0.0,
        0.0,
        0.0,
        0.0,
        -1.629206793918314e-05,
        -99.99999999999868,
        0.0,
        0.0,
        99.99999999999868,
        -1.629206793918314e-05,
        0.0,
        0.0,
        0.0,
        0.0,
        1.0
      ],
      "name": "Knob.001"
    },
    {
      "mesh": 3,
      "name": "Knob.001_UV Mat_0"
    },
    {
      "children": [
        12
      ],
      "matrix": [
        100.0,
        0.0,
        0.0,
        0.0,
        0.0,
        -1.629206793918314e-05,
        -99.99999999999868,
        0.0,
        0.0,
        99.99999999999868,
        -1.629206793918314e-05,
        0.0,
        0.0,
        0.0,
        0.0,
        1.0
      ],
      "name": "Button.001"
    },
    {
      "mesh": 4,
      "name": "Button.001_UV Mat_0"
    },
    {
      "children": [
        14
      ],
      "matrix": [
        100.0,
        0.0,
        0.0,
        0.0,
        0.0,
        -1.629206793918314e-05,
        -99.99999999999868,
        0.0,
        0.0,
        99.99999999999868,
        -1.629206793918314e-05,
        0.0,
        0.0,
        0.0,
        0.0,
        1.0
      ],
      "name": "Bells"
    },
    {
      "mesh": 5,
      "name": "Bells_UV Mat_0"
    },
    {
      "children": [
        16
      ],
      "matrix": [
        100.0,
        0.0,
        0.0,
        0.0,
        0.0,
        -1.629206793918314e-05,
        -99.99999999999868,
        0.0,
        0.0,
        99.99999999999868,
        -1.629206793918314e-05,
        0.0,
        0.0,
        0.0,
        0.0,
        1.0
      ],
      "name": "Numbers.001"
    },
    {
      "mesh": 6,
      "name": "Numbers.001_UV Mat_0"
    },
    {
      "children": [
        18
      ],
      "matrix": [
        100.0,
        0.0,
        0.0,
        0.0,
        0.0,
        -1.629206793918314e-05,
        -99.99999999999868,
        0.0,
        0.0,
        99.99999999999868,
        -1.629206793918314e-05,
        0.0,
        0.0,
        0.0,
        0.0,
        1.0
      ],
      "name": "Arrows Large"
    },
    {
      "mesh": 7,
      "name": "Arrows Large_UV Mat_0"
    },
    {
      "children": [
        20
      ],
      "matrix": [
        100.0,
        0.0,
        0.0,
        0.0,
        0.0,
        -1.629206793918314e-05,
        -99.99999999999868,
        0.0,
        0.0,
        99.99999999999868,
        -1.629206793918314e-05,
        0.0,
        0.0,
        0.0,
        0.0,
        1.0
      ],
      "name": "Arrows Small"
    },
    {
      "mesh": 8,
      "name": "Arrows Small_UV Mat_0"
    }
  ],
  "samplers": [
    {
      "magFilter": 9729,
      "minFilter": 9987,
      "wrapS": 10497,
      "wrapT": 10497
    }
  ],
  "scene": 0,
  "scenes": [
    {
      "name": "Sketchfab_Scene",
      "nodes": [
        0
      ]
    }
  ],
  "textures": [
    {
      "sampler": 0,
      "source": 0
    }
  ]
}
